# xmcd
#
# Track frame offsets: 
#        150
#        12109
#        25781
#        40407
#        52536
#        64790
#        78709
#        91583
#        104983
#        117035
#        130514
#        143811
#        156515
#        167853
#        178494
#        189657
#        201284
#        213721
#        226213
#        238725
#        253064
#        266984
#        279834
#        293499
#        306894
#        318988
#        332347
#
# Disc length: 4606 seconds
#
# Revision: 2
# Processed by: cddbd v1.5.2PL0 Copyright (c) Steve Scherf et al.
# Submitted via: ExactAudioCopy v1.2
#
DISCID=8611fc1b
DTITLE=The Carter Family - Carter Family NYC, Charlotte NC, Chicago 19
DTITLE=37 - 1940Disc D
DYEAR=2003
DGENRE=Country
TTITLE0=Goodbye To The Plains
TTITLE1=My Home's Across The Blue Ridge Mountains
TTITLE2=Dark Haired True Lover
TTITLE3=He Never Came Back
TTITLE4=Happy In The Prison
TTITLE5=Walking In The King's Highway
TTITLE6=St. Regious Girl
TTITLE7=Just A Few More Days
TTITLE8=Bring Back My Boy
TTITLE9=It Is Better Farther On
TTITLE10=Charlie And Nellie
TTITLE11=Cuban Soldier
TTITLE12=Heart That Was Broken For Me, The
TTITLE13=You're Nothing More To Me
TTITLE14=Stern Old Bachelor
TTITLE15=Little Joe
TTITLE16=Reckless Motorman
TTITLE17=You Denied Your Love
TTITLE18=Oh Take Me Back
TTITLE19=You Are My Flower
TTITLE20=Who's That Knocking At My Window
TTITLE21=They Call Her Mother
TTITLE22=Coal Miner's Blues
TTITLE23=Young Freda Bolt
TTITLE24=Little Poplar Log House On The Hill
TTITLE25=Dying Mother, The
TTITLE26=Buddies In The Saddle
EXTD=
EXTT0=
EXTT1=
EXTT2=
EXTT3=
EXTT4=
EXTT5=
EXTT6=
EXTT7=
EXTT8=
EXTT9=
EXTT10=
EXTT11=
EXTT12=
EXTT13=
EXTT14=
EXTT15=
EXTT16=
EXTT17=
EXTT18=
EXTT19=
EXTT20=
EXTT21=
EXTT22=
EXTT23=
EXTT24=
EXTT25=
EXTT26=
PLAYORDER=
